<?xml version="1.0" standalone="no"?>
<!DOCTYPE svg PUBLIC "-//W3C//DTD SVG 20010904//EN"
 "http://www.w3.org/TR/2001/REC-SVG-20010904/DTD/svg10.dtd">
<svg version="1.0" xmlns="http://www.w3.org/2000/svg"
 width="1170.000000pt" height="271.000000pt" viewBox="0 0 1170.000000 271.000000"
 preserveAspectRatio="xMidYMid meet">

<g transform="translate(0.000000,271.000000) scale(0.100000,-0.100000)"
fill="#000000" stroke="none">
<path d="M0 1355 l0 -1355 5850 0 5850 0 0 1355 0 1355 -5850 0 -5850 0 0
-1355z m2156 950 c240 -32 367 -100 467 -253 77 -118 107 -231 107 -403 l0
-99 -330 0 -329 0 -6 35 c-3 19 -7 50 -10 69 -8 53 -39 84 -103 103 -50 16
-102 18 -422 18 -498 0 -539 -10 -577 -133 -15 -49 -18 -99 -18 -347 0 -323 8
-384 54 -434 34 -37 76 -48 226 -62 166 -16 650 -6 729 14 78 20 114 56 132
133 7 33 14 71 14 87 l0 27 338 -2 337 -3 -3 -85 c-8 -204 -46 -352 -114 -450
-101 -146 -241 -219 -493 -257 -178 -27 -1007 -27 -1204 0 -147 20 -276 54
-350 92 -108 54 -228 198 -270 323 -44 131 -53 256 -48 662 4 329 7 386 25
467 54 243 221 412 467 473 137 34 205 37 746 39 410 1 549 -2 635 -14z m8585
1 c239 -30 353 -77 469 -195 92 -93 142 -188 172 -323 16 -78 20 -144 25 -418
9 -562 -20 -719 -167 -893 -107 -127 -237 -188 -475 -222 -151 -22 -1053 -21
-1208 1 -211 30 -344 91 -451 206 -148 159 -186 327 -186 823 1 384 20 530 90
673 99 200 273 306 568 347 144 19 1007 20 1163 1z m-3706 -6 c210 -20 333
-67 430 -166 33 -33 75 -88 93 -121 39 -73 72 -206 72 -290 l0 -63 -325 0
-325 0 0 30 c0 43 -23 93 -52 112 -51 33 -134 40 -458 36 -305 -3 -317 -4
-361 -26 -59 -29 -73 -60 -67 -148 4 -57 8 -70 31 -90 34 -29 48 -31 452 -49
545 -25 556 -25 650 -35 383 -40 535 -217 535 -618 0 -215 -34 -316 -144 -430
-115 -120 -203 -162 -391 -187 -139 -18 -1032 -22 -1180 -5 -213 25 -323 67
-431 164 -100 90 -154 234 -154 411 l0 75 323 -2 322 -3 6 -43 c7 -57 36 -93
95 -117 46 -18 73 -20 414 -20 353 0 367 1 412 22 60 27 78 62 78 147 0 55 -4
69 -26 95 -14 17 -42 35 -62 41 -37 10 -385 31 -827 49 -353 15 -462 46 -579
163 -110 111 -150 226 -151 438 0 111 4 149 23 213 78 271 226 382 557 416
112 12 919 12 1040 1z m-2474 -42 c7 -18 99 -235 204 -483 106 -247 263 -616
350 -820 87 -203 186 -437 221 -518 35 -81 64 -152 64 -158 0 -6 -128 -8 -347
-7 l-347 3 -28 75 c-16 41 -38 102 -50 135 -12 33 -29 79 -39 103 l-18 42
-498 -2 -498 -3 -66 -175 -66 -175 -347 -3 c-190 -1 -346 1 -346 5 0 7 65 161
480 1133 97 228 221 520 276 647 l99 233 471 0 472 0 13 -32z m4057 -982 l2
-996 -330 0 -330 0 0 993 c0 547 2 996 4 998 2 2 150 3 328 2 l323 -1 3 -996z"/>
<path d="M9795 1759 c-96 -13 -130 -25 -159 -60 -40 -47 -47 -90 -53 -334 -6
-262 6 -428 34 -478 47 -82 186 -102 637 -94 227 4 304 8 351 21 129 36 145
87 145 461 0 432 -13 460 -232 484 -114 13 -622 12 -723 0z"/>
<path d="M4009 1793 c-6 -21 -68 -186 -136 -368 -67 -181 -123 -336 -123 -342
0 -10 72 -13 330 -13 l329 0 -27 73 c-15 40 -79 211 -142 380 l-115 307 -52 0
c-51 0 -52 -1 -64 -37z"/>
</g>
</svg>
